<svg width="25" height="26" viewBox="0 0 25 26" fill="none" xmlns="http://www.w3.org/2000/svg">
<path fill-rule="evenodd" clip-rule="evenodd" d="M8.38346 4.9821C7.31246 4.9821 6.28533 5.40756 5.52803 6.16486C4.77072 6.92217 4.34527 7.9493 4.34527 9.0203C4.34527 10.0913 4.77072 11.1184 5.52803 11.8757C6.28533 12.633 7.31246 13.0585 8.38346 13.0585C9.45445 13.0585 10.4816 12.633 11.2389 11.8757C11.9962 11.1184 12.4216 10.0913 12.4216 9.0203C12.4216 7.9493 11.9962 6.92217 11.2389 6.16486C10.4816 5.40756 9.45445 4.9821 8.38346 4.9821ZM6.36436 14.068C5.29337 14.068 4.26624 14.4935 3.50893 15.2508C2.75162 16.0081 2.32617 17.0352 2.32617 18.1062V19.1158C2.32617 19.6513 2.5389 20.1648 2.91755 20.5435C3.29621 20.9221 3.80977 21.1349 4.34527 21.1349H12.4216C12.9571 21.1349 13.4707 20.9221 13.8494 20.5435C14.228 20.1648 14.4407 19.6513 14.4407 19.1158V18.1062C14.4407 17.0352 14.0153 16.0081 13.258 15.2508C12.5007 14.4935 11.4735 14.068 10.4026 14.068H6.36436ZM13.6836 11.953C14.1661 11.0848 14.4407 10.0854 14.4407 9.0203C14.441 7.99403 14.1804 6.98453 13.6836 6.08655C14.2568 5.54415 14.9764 5.1816 15.7535 5.04372C16.5305 4.90583 17.3309 4.99865 18.0558 5.3107C18.7806 5.62275 19.3982 6.14035 19.8321 6.79954C20.266 7.45873 20.4972 8.23061 20.4972 9.01979C20.4972 9.80897 20.266 10.5808 19.8321 11.24C19.3982 11.8992 18.7806 12.4168 18.0558 12.7289C17.3309 13.0409 16.5305 13.1338 15.7535 12.9959C14.9764 12.858 14.2568 12.4954 13.6836 11.953ZM15.9207 21.1349C16.264 20.5413 16.4609 19.8517 16.4609 19.1158V18.1062C16.4627 16.6159 15.9133 15.1776 14.9183 14.068H18.4789C19.5499 14.068 20.5771 14.4935 21.3344 15.2508C22.0917 16.0081 22.5171 17.0352 22.5171 18.1062V19.1158C22.5171 19.6513 22.3044 20.1648 21.9257 20.5435C21.5471 20.9221 21.0335 21.1349 20.498 21.1349H15.9207Z" fill="#FFC300"/>
</svg>
