<svg width="27" height="28" viewBox="0 0 27 28" fill="none" xmlns="http://www.w3.org/2000/svg">
<path d="M23.4144 12.6858H23.219L21.1945 6.76348L3.81849 12.6858L3.42537 12.6825M2.87012 12.6869H3.42537L15.803 2.79898L18.9313 7.18547" stroke="#FFC300" stroke-width="2" stroke-linecap="square"/>
<path d="M16.1961 18.235C16.1961 18.9713 15.9036 19.6774 15.3829 20.1981C14.8623 20.7187 14.1561 21.0112 13.4198 21.0112C12.6835 21.0112 11.9774 20.7187 11.4567 20.1981C10.9361 19.6774 10.6436 18.9713 10.6436 18.235C10.6436 17.4987 10.9361 16.7925 11.4567 16.2719C11.9774 15.7512 12.6835 15.4587 13.4198 15.4587C14.1561 15.4587 14.8623 15.7512 15.3829 16.2719C15.9036 16.7925 16.1961 17.4987 16.1961 18.235Z" stroke="#FFC300" stroke-width="2" stroke-linecap="square"/>
<path d="M23.9697 12.6825V23.7875H2.87012V12.6825H23.9697Z" stroke="#FFC300" stroke-width="2" stroke-linecap="square"/>
<path d="M2.87012 12.6825H5.09112C5.09112 13.2715 4.85712 13.8364 4.44061 14.253C4.02409 14.6695 3.45916 14.9035 2.87012 14.9035V12.6825ZM23.9697 12.6825H21.7487C21.7487 13.2715 21.9827 13.8364 22.3992 14.253C22.8157 14.6695 23.3806 14.9035 23.9697 14.9035V12.6825ZM2.87012 23.7875H5.09334C5.09364 23.4955 5.03633 23.2062 4.92471 22.9364C4.81308 22.6665 4.64933 22.4213 4.44283 22.2148C4.23632 22.0083 3.99112 21.8445 3.72125 21.7329C3.45139 21.6213 3.16216 21.564 2.87012 21.5643V23.7875ZM23.9697 23.7875H21.7487C21.7487 23.1984 21.9827 22.6335 22.3992 22.217C22.8157 21.8005 23.3806 21.5665 23.9697 21.5665V23.7875Z" stroke="#FFC300" stroke-width="2" stroke-linecap="square"/>
</svg>
