<svg width="23" height="20" viewBox="0 0 23 20" fill="none" xmlns="http://www.w3.org/2000/svg">
<path d="M20.8908 8.62648V3.83399H16.0698V1.91699H11.2489V0H4.82094V2.87549H1.60698V8.62648H0L3.21396 19.1699H19.2838L22.4977 8.62648H20.8908ZM17.4518 8.62648C17.1947 9.21116 16.7126 9.73833 16.0698 10.1792V6.34525L19.2838 7.30375V8.62648H17.4518ZM19.2838 4.79249V6.23023L16.0698 5.27174V4.79249H19.2838ZM11.2489 2.87549H14.4628V6.23023L11.2489 7.18873V2.87549ZM11.2489 8.26225L14.4628 7.30375V10.9748C13.5147 11.3103 12.422 11.502 11.2489 11.502V8.26225ZM9.64189 11.3678C8.37237 11.1665 7.23142 10.7543 6.42793 10.1792V7.30375L9.64189 6.34525V11.3678ZM6.42793 0.958497H9.64189V5.27174L8.03491 5.75098V2.87549H6.42793V0.958497ZM3.21396 3.83399H6.42793V6.23023L4.82094 6.70948V8.62648H3.21396V3.83399Z" fill="#FFC300"/>
</svg>
